inDegrees=no
num_controls=7
num_derivatives=13
num_iterations=122
num_multipliers=7
num_parameters=0
num_slacks=7
num_states=26
objective=0.512241
objective_accelerations=0.002387
objective_balance=0.003187
objective_effort=0.014778
objective_height=0.486212
objective_ligament=0.005677
solver_duration=1443.509616
status=Solve_Succeeded
success=true
DataType=double
version=3
OpenSimVersion=4.5
endheader
time	/jointset/ground_pelvis/pelvis_tilt/value	/jointset/ground_pelvis/pelvis_tx/value	/jointset/ground_pelvis/pelvis_ty/value	/jointset/hip_r/hip_flexion_r/value	/jointset/hip_r/hip_adduction_r/value	/jointset/hip_r/hip_rotation_r/value	/jointset/back/lumbar_extension/value	/jointset/patellofemoral_r/patellar_flexion_r/value	/jointset/knee_r/knee_flexion_r/value	/jointset/knee_r/knee_adduction_r/value	/jointset/knee_r/knee_rotation_r/value	/jointset/ankle_r/ankle_angle_r/value	/jointset/subtalar_r/subtalar_angle_r/value	/jointset/ground_pelvis/pelvis_tilt/speed	/jointset/ground_pelvis/pelvis_tx/speed	/jointset/ground_pelvis/pelvis_ty/speed	/jointset/hip_r/hip_flexion_r/speed	/jointset/hip_r/hip_adduction_r/speed	/jointset/hip_r/hip_rotation_r/speed	/jointset/back/lumbar_extension/speed	/jointset/patellofemoral_r/patellar_flexion_r/speed	/jointset/knee_r/knee_flexion_r/speed	/jointset/knee_r/knee_adduction_r/speed	/jointset/knee_r/knee_rotation_r/speed	/jointset/ankle_r/ankle_angle_r/speed	/jointset/subtalar_r/subtalar_angle_r/speed	/forceset/tau_hip_flexion_r	/forceset/tau_hip_adduction_r	/forceset/tau_hip_rotation_r	/forceset/tau_knee_flexion_r	/forceset/tau_ankle_angle_r	/forceset/tau_subtalar_angle_r	/forceset/tau_lumbar_extension	lambda_cid13_p0	lambda_cid14_p0	lambda_cid14_p1	lambda_cid14_p2	lambda_cid14_p3	lambda_cid14_p4	lambda_cid14_p5	/jointset/ground_pelvis/pelvis_tilt/accel	/jointset/ground_pelvis/pelvis_tx/accel	/jointset/ground_pelvis/pelvis_ty/accel	/jointset/hip_r/hip_flexion_r/accel	/jointset/hip_r/hip_adduction_r/accel	/jointset/hip_r/hip_rotation_r/accel	/jointset/back/lumbar_extension/accel	/jointset/patellofemoral_r/patellar_flexion_r/accel	/jointset/knee_r/knee_flexion_r/accel	/jointset/knee_r/knee_adduction_r/accel	/jointset/knee_r/knee_rotation_r/accel	/jointset/ankle_r/ankle_angle_r/accel	/jointset/subtalar_r/subtalar_angle_r/accel	gamma_cid13_p0	gamma_cid14_p0	gamma_cid14_p1	gamma_cid14_p2	gamma_cid14_p3	gamma_cid14_p4	gamma_cid14_p5
1	0.001960732820440189	0.1523890244571947	0.9442280866452157	0.1369206701054617	-0.1958092351035231	-0.2626544678530575	-0.1463840690231357	0.1244615157567662	0.1244615157567686	0.08519281946184772	0.1739396402149247	0.1411529211284715	0.06589570022744939	-0.01483731131658301	0.01224672667137023	0.001763531420417519	-0.02391837483130954	0.01032076124277225	-0.01520896134266314	0.05122518255311426	-0.04840847163296407	-0.04840847163296411	-0.008409869743832248	-0.0002753930288491955	-0.007312130066539475	0.01030952723769553	0.04938582576864358	-0.01848186981161161	-0.009219159155920014	-0.1329559065366346	-0.02006062495307487	-0.02648687913882973	0.0328627605407838	-40.37081732193712	-50.96642972913055	-13.28489001344156	-5.580183354775022	14.54778473911717	-697.4418255984518	54.02140554686652	-0.1346032984263679	-0.1490430850032302	0.006331473048010457	0.107219938104783	-0.08721360121029946	0.01229533276362479	0.5341094264939855	-0.3507199488700279	-0.3507199488700291	0.2877070857545301	-0.02672451192376021	-0.4046710480926509	-0.222643621051397	7.33598404974475e-10	8.546061302474796e-10	-5.578039930887086e-11	4.376853360123106e-09	2.025842616947374e-10	-2.185214307608958e-09	-2.566750296220487e-09
1.01	0.001805608437212284	0.1525040404835256	0.9442460180735814	0.1366868846333992	-0.1957106476370441	-0.2628062351375084	-0.145845111044004	0.1239600655162896	0.123960065516291	0.08512361190450841	0.1739359970432356	0.1410595623639649	0.06598735744490317	-0.01618652799301436	0.01075673218486271	0.00182254606186793	-0.02284525177019318	0.009385787147602577	-0.01518686951339811	0.05656433668805198	-0.05188238413538416	-0.05188238413538417	-0.005407792129247421	-0.0004066571790039154	-0.01136421345739127	0.008008146303501357	0.04952913293117479	-0.01855247474944226	-0.009247280402854481	-0.1327794630288952	-0.0200740935220727	-0.02644971744628841	0.03268799759149539	-40.35618880810429	-50.96589120428889	-13.26609844730618	-5.586101054573331	14.53349389888055	-697.3994714099316	54.05210629975673	-0.1349250641928618	-0.1489395528180461	0.005654776197585481	0.1063788092031062	-0.09828031248491545	-0.009189404562591222	0.533506919218002	-0.3458481105598714	-0.3458481105598651	0.3100361731010239	0.000660842726902762	-0.406165639486108	-0.2359501199087228	2.977814212700016e-10	2.684942168729231e-10	1.649663167076692e-09	3.694799295473989e-09	1.95806258926334e-10	-2.273450605254779e-09	-1.599300476198927e-09
1.02	0.001637023044831806	0.1526041641805227	0.9442645333116624	0.1364636344557654	-0.1956217381112798	-0.2629590526061807	-0.1452528238210781	0.1234238519088625	0.1234238519088629	0.08508514073807311	0.1739324388719025	0.1409255450345688	0.06605558789495382	-0.01752951314709835	0.009268260804615703	0.001880293363475342	-0.02181131594555745	0.008385173099848322	-0.01541899818695438	0.06189103131196336	-0.05536114502307912	-0.05536114502307909	-0.002262591563040002	-0.0002583929576215326	-0.01544384304442963	0.0056241737570779	0.049672440093706	-0.01862307968727027	-0.009275401649789223	-0.1326030195211559	-0.02008756209107051	-0.02641255575374712	0.03251323464220693	-40.34060430043332	-50.96904007826366	-13.24694547804422	-5.593226624791548	14.53464570470741	-697.4078656631431	54.09823950724811	-0.1333569939568945	-0.1487384637509429	0.006078005078813786	0.0993824908084175	-0.1003415917272163	-0.03854876780063353	0.5316175242887202	-0.3516896259250015	-0.3516896259250052	0.316331676079048	0.02918116238444714	-0.4101802873299624	-0.239161943499001	6.748148153516079e-10	6.1855662113475e-10	-1.324145646066445e-09	5.296045645551977e-09	2.836530014646325e-10	-2.09363976860159e-09	-4.615269225141515e-09
1.03	0.001455056011818192	0.152689406067114	0.9442836206756616	0.1362505862673303	-0.1955430476949508	-0.2631149588448013	-0.1446073697575933	0.1228528646749995	0.122852864674998	0.08507857943617084	0.173931213434146	0.1407506590028328	0.06609971548346355	-0.01886112794243306	0.007779885305477353	0.00193707669106591	-0.02079877108666157	0.007353959457850546	-0.01575215033429275	0.06719386421487808	-0.05883323701266322	-0.05883323701266367	0.0009472977328771405	2.87826089607091e-06	-0.01953121597902521	0.003203142892466678	0.04985082526675878	-0.0187532838983851	-0.009294312370330744	-0.1324691770383602	-0.0199856516547853	-0.02639087358736107	0.03229612695773691	-40.32412260007254	-50.93234402821158	-13.22832806441285	-5.59936519540703	14.51182830007063	-697.3568564596351	54.15209322915025	-0.132648646651395	-0.1489216991882963	0.005462703692071364	0.1021232936088702	-0.1043531978123115	-0.02918240986146013	0.5287285977732575	-0.3445094893106506	-0.3445094893106328	0.322862694605175	0.02303721008835269	-0.4076935303560436	-0.2433036953170535	1.060142601043281e-09	9.781718245561373e-10	-4.345701932470105e-09	6.920590979453726e-09	3.724653026285101e-10	-1.911093757108613e-09	-7.671885102338862e-09
1.04	0.001259855845985306	0.1527597572774753	0.9443032727143553	0.1360476500895199	-0.1954746378045171	-0.2632738933992275	-0.1439090648801832	0.1222472484204736	0.1222472484204702	0.08510402605487923	0.1739322881302753	0.1405349636949844	0.0661196867558522	-0.02017613971095312	0.006290125558618341	0.001993228302374253	-0.01978891382061785	0.006329067920802465	-0.01602466134807358	0.07246119409700877	-0.06228694915566875	-0.06228694915566851	0.004138992559079392	0.000201633819531118	-0.0236056982668883	0.000792910532860623	0.05002921043977065	-0.01888348810949994	-0.009313223090872442	-0.1323353345555645	-0.01988374121850003	-0.026369191420975	0.03207901927326687	-40.30673906113869	-50.8993359568291	-13.20924936329026	-5.60684179505174	14.5042973457536	-697.3566790074124	54.22178672062665	-0.1300363885939369	-0.1490153132950748	0.005951661822368543	0.09884497223798448	-0.09907717073729122	-0.0264205410892869	0.5245169201319104	-0.3480136566092841	-0.3480136566092883	0.3126927821360702	0.01667803040793625	-0.4076021579834632	-0.2370022424979675	9.599635477704597e-10	7.960372594757218e-10	-4.677493499983748e-09	7.32848271127414e-09	3.907677584306399e-10	-1.822938079754967e-09	-8.655676485345769e-09
1.05	0.001051589109429478	0.1528152030827329	0.9443234829012187	0.1358547903834787	-0.1954164539948583	-0.2634355218378321	-0.1431582740795328	0.1216071936784074	0.1216071936784062	0.08516131598827935	0.1739353077040565	0.1402785798757537	0.06611560254971563	-0.02147444764225435	0.004798705764745856	0.002048662796245405	-0.01878414005802695	0.005307842696744694	-0.01631729869629799	0.07769010139663417	-0.06572008618526476	-0.06572008618526427	0.007317769878022052	0.000418101189482212	-0.02766964873782098	-0.001608689249634635	0.05024370137883793	-0.01907421815956999	-0.009336269452290777	-0.1322486416072063	-0.01966649566897988	-0.02638005853627733	0.03182187056589292	-40.28843642646977	-50.82804830039873	-13.19896207931481	-5.611365945104728	14.47979857933922	-697.3030712165641	54.28200679139163	-0.1293138407498166	-0.1492546901219197	0.0053170553733009	0.1011268041791698	-0.1036219943490132	-0.03312492550345622	0.5210479394122117	-0.3403769330461419	-0.3403769330461112	0.3202868084796624	0.02650541004744857	-0.4055788839379101	-0.2415793277488924	8.446124057800009e-10	5.969730141296283e-10	-4.925229920032093e-09	7.698354018029519e-09	4.068667815652155e-10	-1.737732100343174e-09	-9.574692102909236e-09
